<!-- Generator: Adobe Illustrator 21.1.0, SVG Export Plug-In  -->
<svg version="1.1"
	 xmlns="http://www.w3.org/2000/svg" xmlns:xlink="http://www.w3.org/1999/xlink" xmlns:a="http://ns.adobe.com/AdobeSVGViewerExtensions/3.0/"
	 x="0px" y="0px" width="250.49px" height="339.93px" viewBox="0 0 250.49 339.93"
	 style="enable-background:new 0 0 250.49 339.93;" xml:space="preserve">
<style type="text/css">
	.st0{fill-rule:evenodd;clip-rule:evenodd;fill:#F15A24;}
</style>
<defs>
</defs>
<g>
	<path class="st0" d="M125.25,0C56.08,0,0,56.08,0,125.25c0,57.1,38.21,105.26,90.45,120.34c11.05,3.19,22.73,4.9,34.8,4.9
		s23.75-1.71,34.8-4.9c52.24-15.08,90.44-63.24,90.44-120.34C250.49,56.08,194.42,0,125.25,0z M185.47,176.68
		c-14.52,16.99-36.11,27.76-60.22,27.76c-24.11,0-45.7-10.77-60.23-27.76c-11.83-13.84-18.97-31.8-18.97-51.43
		c0-43.74,35.46-79.2,79.2-79.2s79.19,35.46,79.19,79.2C204.44,144.88,197.3,162.84,185.47,176.68z"/>
	<path class="st0" d="M185.47,176.68l-25.42,68.91l-34.8,94.34l-34.8-94.34l-25.43-68.91c14.53,16.99,36.12,27.76,60.23,27.76
		C149.36,204.44,170.95,193.67,185.47,176.68z"/>
</g>
</svg>