<!-- Generator: Adobe Illustrator 21.1.0, SVG Export Plug-In  -->
<svg version="1.1"
	 xmlns="http://www.w3.org/2000/svg" xmlns:xlink="http://www.w3.org/1999/xlink" xmlns:a="http://ns.adobe.com/AdobeSVGViewerExtensions/3.0/"
	 x="0px" y="0px" width="122.527px" height="183.794px" viewBox="0 0 122.527 183.794"
	 style="enable-background:new 0 0 122.527 183.794;" xml:space="preserve">
<style type="text/css">
	.st0{fill:#F26F21;}
</style>
<defs>
</defs>
<path class="st0" d="M119.867,41.054c-1.767-5.815-4.069-10.882-6.903-15.214c-2.84-4.321-6.102-7.936-9.79-10.846
	c-3.696-2.904-7.44-5.353-11.281-7.337C82.969,3.118,72.752,0.565,61.267,0H0v183.794h30.634v-61.263h0.095v-17.044
	c0-17.039,13.819-30.855,30.863-30.855c7.828,0,14.953,2.929,20.393,7.737c-6.957,6.644-11.336,15.991-11.336,26.352v9.668
	c-5.726,1.397-15.49,2.672-27.643-0.139c0,0,14.41,6.849,32.716,2.311c5.781-1.28,11.192-3.153,16.172-5.688
	c3.841-1.837,7.585-4.263,11.281-7.238c3.688-2.975,6.95-6.627,9.79-10.956c2.834-4.319,5.137-9.39,6.903-15.21
	c1.776-5.809,2.66-12.548,2.66-20.206C122.527,53.603,121.644,46.871,119.867,41.054z M72.99,66.039
	c-3.288,2.13-7.19,3.397-11.398,3.397c-4.213,0-8.111-1.267-11.4-3.397c-5.796-3.754-9.652-10.244-9.652-17.66
	c0-11.632,9.428-21.059,21.053-21.059c11.627,0,21.059,9.427,21.059,21.059C82.65,55.795,78.797,62.284,72.99,66.039z
	 M90.474,108.121c-3.446,3.448-9.037,3.448-12.472,0c-3.458-3.441-3.458-9.03,0-12.48c3.436-3.447,9.026-3.447,12.472,0
	C93.926,99.09,93.926,104.679,90.474,108.121z"/>
</svg>