<!-- Generator: Adobe Illustrator 21.1.0, SVG Export Plug-In  -->
<svg version="1.1"
	 xmlns="http://www.w3.org/2000/svg" xmlns:xlink="http://www.w3.org/1999/xlink" xmlns:a="http://ns.adobe.com/AdobeSVGViewerExtensions/3.0/"
	 x="0px" y="0px" width="184.684px" height="45px" viewBox="0 0 184.684 45" style="enable-background:new 0 0 184.684 45;"
	 xml:space="preserve">
<style type="text/css">
	.st0{fill:#008ABF;}
	.st1{fill:#F26F21;}
</style>
<defs>
</defs>
<g>
	<path class="st0" d="M178.341,6.849c-0.107,0.005-0.205,0.018-0.318,0.018c-0.688,0-1.304,0.073-1.843,0.219
		c-0.541,0.147-0.999,0.401-1.374,0.764c-0.376,0.36-0.662,0.838-0.857,1.432c-0.196,0.592-0.296,1.329-0.296,2.207v1.571h6.274
		v4.068h-6.085v19.434h-5.802V17.149l-2.09-0.322c-0.454-0.077-0.816-0.231-1.092-0.462c-0.273-0.232-0.411-0.555-0.411-0.972
		v-2.334h3.593v-1.756c0-1.356,0.209-2.573,0.624-3.651c0.415-1.079,1.009-1.995,1.784-2.75c0.776-0.755,1.718-1.334,2.83-1.735
		c0.088-0.032,0.183-0.054,0.272-0.083C170.215,1.127,166.334,0,162.186,0c-11.792,0-21.458,9.073-22.414,20.619
		c0.098-0.348,0.208-0.69,0.333-1.021c0.571-1.509,1.376-2.788,2.419-3.835c1.041-1.047,2.297-1.858,3.77-2.427
		c1.471-0.569,3.108-0.855,4.909-0.855c1.799,0,3.432,0.286,4.896,0.855c1.464,0.569,2.713,1.38,3.745,2.427
		c1.035,1.047,1.833,2.325,2.396,3.835c0.563,1.511,0.845,3.199,0.845,5.061c0,1.88-0.282,3.575-0.845,5.085
		c-0.563,1.51-1.361,2.797-2.396,3.859c-1.033,1.064-2.281,1.88-3.745,2.449c-1.464,0.57-3.097,0.856-4.896,0.856
		c-1.801,0-3.438-0.286-4.909-0.856c-1.381-0.534-2.564-1.294-3.566-2.263C146.624,40.491,153.876,45,162.186,45
		c12.426,0,22.498-10.074,22.498-22.501C184.684,16.415,182.265,10.898,178.341,6.849z M151.203,32.517
		c2.003,0,3.488-0.662,4.45-1.987c0.962-1.325,1.445-3.266,1.445-5.824c0-2.557-0.482-4.506-1.445-5.845
		c-0.962-1.341-2.447-2.012-4.45-2.012c-2.036,0-3.539,0.675-4.512,2.022c-0.97,1.348-1.454,3.294-1.454,5.835
		c0,2.543,0.484,4.481,1.454,5.812C147.663,31.851,149.167,32.517,151.203,32.517z"/>
	<g>
		<g>
			<path class="st1" d="M19.652,9.496c-0.492-0.752-1.062-1.381-1.703-1.887c-0.642-0.507-1.295-0.932-1.962-1.275
				c-1.553-0.792-3.329-1.236-5.329-1.335H0v31.976h5.329V26.317H5.34v-2.457c0-2.965,2.404-5.369,5.37-5.369
				c1.362,0,2.6,0.51,3.547,1.347c-1.211,1.152-1.969,2.781-1.969,4.583v1.725c1.347-0.21,2.583-0.591,3.699-1.158
				c0.666-0.324,1.32-0.743,1.962-1.259c0.641-0.517,1.21-1.152,1.703-1.906c0.493-0.753,0.895-1.636,1.202-2.65
				c0.308-1.01,0.463-2.181,0.463-3.513c0-1.331-0.155-2.504-0.463-3.516C20.547,11.13,20.145,10.249,19.652,9.496z M12.693,16.997
				c-0.573,0.367-1.25,0.589-1.983,0.589c-0.734,0-1.413-0.223-1.986-0.589c-1.006-0.655-1.679-1.785-1.679-3.074
				c0-2.024,1.642-3.664,3.665-3.664c2.023,0,3.663,1.639,3.663,3.664C14.373,15.212,13.702,16.343,12.693,16.997z M15.734,24.319
				c-0.601,0.597-1.572,0.597-2.172,0c-0.6-0.6-0.6-1.575,0-2.172c0.6-0.6,1.571-0.6,2.172,0
				C16.333,22.744,16.333,23.72,15.734,24.319z M44.449,15.362c-0.37-0.32-0.797-0.66-1.278-1.019
				c-0.48-0.357-1.049-0.686-1.701-0.98c-0.654-0.294-1.406-0.542-2.259-0.74c-0.851-0.196-1.844-0.295-2.979-0.295
				c-1.752,0-3.392,0.332-4.923,0.999c-1.531,0.668-2.869,1.573-4.017,2.72c-1.144,1.146-2.052,2.484-2.719,4.018
				c-0.666,1.528-1,3.169-1,4.923c0,1.751,0.333,3.39,1,4.919c0.666,1.53,1.574,2.868,2.719,4.017
				c1.149,1.148,2.487,2.054,4.017,2.721c1.53,0.666,3.17,0.999,4.923,0.999c1.134,0,2.165-0.125,3.09-0.371
				c0.926-0.247,1.739-0.535,2.444-0.869c0.702-0.334,1.281-0.665,1.738-1c0.456-0.331,0.772-0.598,0.944-0.794v2.367h4.442V12.994
				h-4.442V15.362z M43.746,28.002c-0.47,0.974-1.093,1.849-1.869,2.629c-0.78,0.776-1.653,1.4-2.628,1.868
				c-0.973,0.469-1.98,0.7-3.016,0.7c-1.037,0-2.043-0.231-3.017-0.7c-0.973-0.468-1.851-1.092-2.627-1.868
				c-0.779-0.78-1.402-1.655-1.87-2.629c-0.468-0.974-0.705-1.981-0.705-3.015c0-1.036,0.237-2.044,0.705-3.018
				c0.468-0.975,1.091-1.85,1.87-2.627c0.776-0.779,1.653-1.401,2.627-1.871c0.974-0.469,1.98-0.703,3.017-0.703
				c1.036,0,2.043,0.234,3.016,0.703c0.975,0.47,1.848,1.092,2.628,1.871c0.776,0.777,1.399,1.652,1.869,2.627
				c0.468,0.974,0.703,1.982,0.703,3.018C44.449,26.021,44.214,27.028,43.746,28.002z M115.729,14.846
				c-1.185-0.94-2.481-1.592-3.887-1.963c-1.404-0.372-2.8-0.555-4.181-0.555c-1.405,0-2.615,0.134-3.63,0.406
				c-1.009,0.273-1.862,0.581-2.552,0.924c-0.812,0.398-1.493,0.841-2.034,1.337v-2h-4.442v23.981h4.442V24.987
				c0.073-1.531,0.417-2.9,1.037-4.11c0.247-0.519,0.573-1.018,0.98-1.498c0.403-0.481,0.897-0.919,1.461-1.313
				c0.567-0.395,1.242-0.71,2.02-0.946c0.776-0.233,1.685-0.35,2.718-0.35c1.036,0,1.943,0.117,2.716,0.35
				c0.782,0.236,1.452,0.551,2.022,0.946c0.565,0.395,1.045,0.832,1.442,1.313c0.396,0.48,0.73,0.98,0.999,1.498
				c0.616,1.21,0.962,2.58,1.037,4.11v11.988h4.441V24.987c-0.221-2.541-0.748-4.635-1.574-6.276
				C117.917,17.07,116.915,15.782,115.729,14.846z M58.995,13.658c-0.813,0.398-1.494,0.841-2.036,1.337v-2h-4.441v23.981h4.441
				V24.987c0.048-1.063,0.208-1.992,0.48-2.796c0.271-0.802,0.598-1.5,0.98-2.092c0.382-0.591,0.82-1.086,1.315-1.48
				c0.494-0.395,0.988-0.717,1.48-0.963c1.184-0.592,2.505-0.888,3.961-0.888v-4.441c-1.384,0-2.585,0.134-3.61,0.406
				C60.542,13.007,59.685,13.315,58.995,13.658z M130.57,12.994V7.665h-4.44v5.329h-4.442v4.44h4.442v19.541h4.44V17.434h4.441
				v-4.44H130.57z M89.048,16.195c-1.21-1.272-2.636-2.235-4.275-2.886c-1.64-0.655-3.327-0.981-5.053-0.981
				c-1.751,0-3.393,0.332-4.923,0.999c-1.531,0.668-2.866,1.573-4.015,2.72c-1.148,1.146-2.055,2.484-2.721,4.018
				c-0.666,1.528-1.001,3.169-1.001,4.923c0,1.751,0.334,3.39,1.001,4.919c0.665,1.53,1.573,2.868,2.721,4.017
				c1.149,1.148,2.484,2.054,4.015,2.721c1.53,0.666,3.171,0.999,4.923,0.999c1.63,0,3.164-0.215,4.608-0.648
				c1.443-0.433,2.702-1.017,3.775-1.758c1.074-0.74,1.919-1.608,2.536-2.608c0.619-1.002,0.924-2.065,0.924-3.2H86.64
				c0,0.514-0.178,1.002-0.538,1.46c-0.358,0.458-0.85,0.855-1.479,1.201c-0.629,0.348-1.363,0.618-2.201,0.816
				c-0.84,0.196-1.74,0.292-2.703,0.292c-1.109,0-2.14-0.201-3.091-0.608c-0.949-0.405-1.781-0.914-2.498-1.517
				c-0.716-0.604-1.283-1.252-1.703-1.943c-0.418-0.691-0.628-1.334-0.628-1.925h20.389c0.324-2.369,0.18-4.479-0.423-6.329
				C91.159,19.027,90.255,17.466,89.048,16.195z M71.799,22.762c0.097-0.516,0.362-1.12,0.795-1.811
				c0.431-0.693,0.994-1.345,1.685-1.962c0.689-0.617,1.491-1.141,2.404-1.573c0.912-0.432,1.926-0.648,3.035-0.648
				c1.112,0,2.124,0.216,3.035,0.648c0.912,0.432,1.716,0.956,2.406,1.573c0.69,0.617,1.247,1.269,1.665,1.962
				c0.418,0.691,0.691,1.294,0.813,1.811H71.799z"/>
		</g>
	</g>
	<path class="st1" d="M13.264,25.288c0,0-2.352,1.08-5.783,0.286c0,0,2.789,1.267,6.229,0.252L13.264,25.288z"/>
</g>
</svg>