<!-- Generator: Adobe Illustrator 21.1.0, SVG Export Plug-In  -->
<svg version="1.1"
	 xmlns="http://www.w3.org/2000/svg" xmlns:xlink="http://www.w3.org/1999/xlink" xmlns:a="http://ns.adobe.com/AdobeSVGViewerExtensions/3.0/"
	 x="0px" y="0px" width="64px" height="67.797px" viewBox="0 0 64 67.797" style="enable-background:new 0 0 64 67.797;"
	 xml:space="preserve">
<style type="text/css">
	.st0{fill:#F15A24;}
</style>
<defs>
</defs>
<g id="Go_to_Web_copy">
	<polygon class="st0" points="37.418,30.18 37.418,64.287 46.196,55.516 52.568,67.797 57.197,65.402 51.062,53.572 62.913,53.572 	
		"/>
	<path class="st0" d="M63.517,37.506c0.057-0.324,0.107-0.648,0.154-0.977c0.025-0.176,0.048-0.354,0.071-0.531
		c0.039-0.312,0.077-0.625,0.107-0.939c0.024-0.244,0.04-0.488,0.058-0.734c0.019-0.254,0.04-0.506,0.053-0.762
		C63.984,33.047,64,32.531,64,32.012c0-0.51-0.014-1.014-0.038-1.518c-0.015-0.316-0.042-0.631-0.065-0.945
		c-0.013-0.166-0.022-0.33-0.038-0.496c-0.037-0.402-0.085-0.805-0.137-1.203c-0.008-0.064-0.016-0.129-0.024-0.191
		c-0.057-0.422-0.124-0.842-0.197-1.258c-0.005-0.027-0.008-0.055-0.013-0.082c0,0-0.001-0.002-0.002-0.002
		C60.964,12.283,49.306,1.428,34.887,0.137c-0.021-0.002-0.041-0.004-0.062-0.004c-0.441-0.039-0.883-0.074-1.329-0.094
		C33,0.014,32.502,0,32,0s-1,0.014-1.497,0.039c-0.446,0.02-0.888,0.055-1.329,0.094c-0.021,0-0.041,0.002-0.062,0.004
		C14.694,1.428,3.036,12.283,0.515,26.316c-0.001,0-0.001,0.002-0.001,0.002c-0.005,0.027-0.009,0.055-0.014,0.084
		c-0.074,0.416-0.14,0.834-0.197,1.256c-0.009,0.062-0.016,0.127-0.024,0.191c-0.052,0.398-0.1,0.801-0.137,1.203
		c-0.015,0.166-0.024,0.33-0.038,0.496c-0.024,0.314-0.05,0.629-0.065,0.945C0.014,30.998,0,31.502,0,32.012
		c0,0.504,0.014,1.008,0.038,1.508c0.016,0.332,0.043,0.662,0.068,0.99c0.012,0.148,0.02,0.299,0.034,0.447
		c0.038,0.416,0.087,0.83,0.141,1.242c0.006,0.049,0.012,0.098,0.019,0.145c0.06,0.447,0.131,0.889,0.21,1.328
		c0.001,0.008,0.002,0.016,0.003,0.021h0.001c2.352,13.107,12.684,23.437,25.794,25.793c0.001,0.002,0.002,0.004,0.004,0.006
		c0.098,0.018,0.197,0.029,0.294,0.047c0.298,0.051,0.597,0.098,0.898,0.141c0.207,0.029,0.414,0.055,0.622,0.078
		c0.28,0.035,0.56,0.068,0.843,0.096c0.274,0.025,0.551,0.043,0.828,0.062c0.222,0.016,0.442,0.035,0.666,0.045
		C30.972,63.986,31.484,64,32,64c0.033,0,0.066,0,0.094,0v-0.297v-7.162c-0.027,0-0.061,0.012-0.094,0.012
		c-1.431,0-2.832-0.131-4.197-0.367c-1.051-3.219-2.018-7.455-2.619-12.691c2.208,0.137,4.483,0.213,6.815,0.213
		c0.033,0,0.066,0,0.094,0v-4.258c-0.027,0-0.061,0-0.094,0c-2.555,0-4.956-0.086-7.206-0.238c-0.152-2.248-0.237-4.646-0.237-7.199
		c0-2.557,0.085-4.961,0.238-7.211c2.249-0.152,4.65-0.238,7.205-0.238c2.55,0,4.946,0.086,7.192,0.236
		c0.009,0.131,0.022,0.252,0.03,0.383c0.651,0.23,1.269,0.596,1.798,1.08l2.621,2.406c-0.035-1.178-0.094-2.334-0.165-3.479
		c5.242,0.602,9.481,1.57,12.703,2.623c0.236,1.365,0.367,2.766,0.367,4.199c0,1.43-0.135,2.824-0.373,4.186
		c-1.001,0.326-2.095,0.645-3.291,0.945l2.505,2.305c0,0,0,0,0,0.002l5.915,5.428c0.993-2.271,1.727-4.678,2.179-7.18
		c0.002-0.002,0.004-0.002,0.006-0.004C63.498,37.631,63.506,37.568,63.517,37.506z M22.95,9.197
		c-0.912,3.424-1.621,7.375-2.076,11.684c-4.307,0.453-8.257,1.162-11.682,2.074C11.687,16.691,16.687,11.691,22.95,9.197z
		 M22.948,54.814C16.684,52.32,11.684,47.32,9.189,41.057c3.425,0.912,7.376,1.621,11.683,2.074
		C21.328,47.439,22.036,51.391,22.948,54.814z M20.512,38.82c-5.237-0.6-9.474-1.566-12.692-2.617
		c-0.236-1.363-0.366-2.762-0.366-4.191c0-1.434,0.13-2.834,0.367-4.199c3.219-1.053,7.455-2.02,12.692-2.621
		c-0.138,2.209-0.215,4.486-0.215,6.82C20.298,34.342,20.375,36.615,20.512,38.82z M32,20.305c-2.332,0-4.606,0.076-6.815,0.213
		c0.601-5.236,1.568-9.473,2.619-12.691C29.168,7.59,30.569,7.459,32,7.459c1.426,0,2.821,0.129,4.181,0.363
		c1.051,3.221,2.016,7.453,2.618,12.695C36.596,20.381,34.326,20.305,32,20.305z M43.119,20.879
		c-0.453-4.307-1.16-8.258-2.07-11.684c6.264,2.494,11.264,7.494,13.76,13.76C51.381,22.043,47.429,21.334,43.119,20.879z"/>
</g>
</svg>